<svg width="226" height="84" viewBox="0 0 226 84" fill="none" xmlns="http://www.w3.org/2000/svg">
<path fill-rule="evenodd" clip-rule="evenodd" d="M20.2636 23.1094C24.7067 20.7685 23.025 21.1837 27.2656 18.547C29.6896 17.0677 34.47 14.6385 37.1639 13.751L43.9634 11.8253C52.9844 9.57261 64.5644 10.1072 73.2481 12.9205L83.4837 17.213C84.1585 17.5971 84.5633 17.9241 85.2329 18.3082C85.9077 18.6611 88.3991 20.1456 88.7988 20.5609C89.4061 21.2149 88.7988 21.599 91.7625 23.5817C91.4926 24.5575 83.5512 33.9783 82.9439 34.7465L68.3327 52.8405C66.8534 54.735 66.7859 53.5516 63.0799 55.1814C60.8584 56.1572 59.0417 57.8181 57.5573 59.6504C56.3427 61.1297 54.661 64.3582 54.5935 66.9067C54.526 66.8755 54.526 66.7302 54.526 66.7562C54.526 66.7873 54.4585 66.6368 54.4585 66.6056C54.4585 66.5485 54.3911 66.4862 54.3911 66.4292C53.3166 62.8166 52.4394 59.8269 49.2058 57.3354C48.8684 57.0707 48.666 56.832 48.2611 56.5672C44.8302 54.2004 42.1363 53.7851 37.8957 53.7851C35.6742 50.4996 30.4889 40.9595 27.93 36.7863L20.2533 23.1042L20.2636 23.1094ZM23.6323 20.2391C23.025 19.855 23.1599 20.1197 22.9575 19.3515C21.7429 19.6785 20.3311 21.0124 18.9193 21.3342C18.7169 20.6543 18.3795 20.2961 18.0421 19.7927C18.6494 19.4657 18.9868 19.2892 19.5889 18.9051C20.1287 18.521 20.601 18.194 21.4055 18.0175C21.3381 16.3566 20.5284 17.2493 23.897 14.9967C26.9957 12.9257 28.6774 12.2717 31.7087 10.7612C38.2383 7.44452 49.0085 5.34237 56.3479 5.34237C60.2511 5.34237 63.9571 5.90294 67.2531 6.43756C69.0023 6.73342 70.5542 7.11751 72.1685 7.59504C76.7465 8.95495 81.1895 10.4965 85.2952 12.9257C85.97 13.2786 91.42 16.5382 91.7573 17.0988C92.0947 17.6594 91.8923 16.86 91.5549 18.0175C92.2297 18.194 92.6345 18.6975 93.1692 19.0816C93.709 19.5539 94.0463 19.8238 94.6484 20.2391C94.3785 20.6543 93.5065 21.7495 93.1017 22.0142C91.8871 21.2149 91.42 20.3532 90.4753 20.0003C89.5981 19.7044 90.6777 20.0885 89.7331 20.1508C89.2607 20.1508 89.2607 20.1197 88.8559 19.855C80.712 14.3738 73.5751 11.6229 63.7443 10.2318C53.3114 8.75252 39.9771 10.8235 30.7536 15.8271C30.4162 16.0036 30.2813 16.123 29.8764 16.2995C28.7345 16.8912 27.6549 17.457 26.6479 18.1369L23.9541 19.9432C23.5492 20.2391 23.8191 20.0626 23.6167 20.2391H23.6323ZM16.9002 17.7788C16.6303 17.2753 16.4279 16.8912 16.2254 16.2372C16.6978 16.1178 19.3242 14.9344 19.3916 14.3998C19.6615 13.3928 18.0473 14.4309 21.3433 11.9706C22.0855 11.436 22.6876 11.0519 23.4298 10.5225C27.4006 7.67809 33.0582 5.28008 37.5687 3.71256C47.3995 0.219364 60.0539 -0.227017 70.222 2.17099C78.9057 4.21604 85.8402 7.5639 92.9771 12.8322C93.382 13.1281 93.7193 13.3046 93.9841 13.6004C94.6588 14.2233 93.9841 14.3115 94.7263 15.0797C95.3336 15.7337 96.2056 16.2372 96.9478 17.3324C96.543 18.0435 96.408 18.1006 96.0032 18.6663C95.3284 18.22 93.5792 16.8601 93.1069 16.2372C91.5601 16.6524 93.2418 17.213 89.4061 14.6385C83.7484 10.8754 78.2984 8.62794 71.8363 6.79051C67.5956 5.60708 58.912 4.27313 54.7336 4.8337C52.782 5.09842 50.8304 4.92194 48.8788 5.2178C45.3129 5.69013 41.6744 6.40123 38.3109 7.52756C34.0703 8.94975 28.8176 11.0208 25.1167 13.481C24.307 13.9534 21.3485 16.0296 20.8086 16.1178C18.6546 16.4448 18.6546 17.6594 16.9054 17.7788H16.9002ZM15.151 14.6697C14.2738 13.3357 11.5177 7.88571 10.4381 6.9099C9.29096 6.99813 8.62139 7.74037 7.81168 8.21271L0 12.6869C0.0674763 13.5745 0.337381 13.7821 0.674763 14.405L17.3051 43.0149C18.3172 44.7641 26.9334 59.422 26.8659 60.0137C26.8659 60.0708 25.3866 62.9723 25.1842 63.5952C22.3554 70.6127 25.9939 79.6182 32.9284 82.5508C37.7089 84.5958 42.6917 84.5958 47.2022 81.7826C50.9705 79.4106 54.3392 74.9415 54.3392 70.7061H54.6091C54.6091 75.5904 58.9172 80.9521 63.6301 82.8207C71.3068 85.8416 79.5182 82.7636 82.9543 75.8914C86.3177 69.1386 83.8315 65.1419 83.899 63.6003L97.5655 28.1805C97.8354 27.5005 97.9029 27.1164 98.1728 26.3742C98.9825 23.9762 104.298 11.3322 104.298 10.2318C104.298 10.0813 103.825 8.89785 102.211 11.0311C101.401 12.0692 98.9825 15.059 98.2403 15.5624L95.7488 13.1644C94.4045 13.4914 95.7488 14.052 92.048 11.2959C88.2122 8.45147 85.5184 7.32513 81.5477 5.34237C80.738 4.95827 80.2033 4.68837 79.2587 4.33542C64.3101 -1.64921 47.685 -1.3793 32.8713 4.7818C31.9267 5.13475 31.4595 5.46175 30.5823 5.81989C28.0234 6.85799 23.9852 9.34423 21.6962 10.9429C20.8865 11.4464 20.3519 12.0069 19.6096 12.4845C18.7324 13.0762 18.4677 12.4533 15.1666 14.6749L15.151 14.6697Z" fill="black"/>
<path fill-rule="evenodd" clip-rule="evenodd" d="M120.108 52.6951H123.206L125.428 41.3539L130.816 53.5879C131.49 53.0844 136.203 42.392 136.338 41.5927H136.811C136.811 43.3678 137.755 47.7227 138.093 49.8248C138.295 50.7747 138.498 51.8076 138.565 52.7003H141.929L138.16 31.7931C137.485 32.2654 137.485 32.6495 137.148 33.48C136.878 34.2222 136.608 34.5752 136.271 35.2863L131.221 46.4821C130.546 45.9475 130.681 45.6517 130.276 44.7641C129.939 44.0218 129.736 43.7 129.399 42.9578L126.03 35.4627C125.693 34.6063 124.686 32.2031 124.078 31.7879C123.943 33.2672 123.404 35.4004 123.071 36.9991C122.734 38.8625 122.397 40.347 122.059 42.1792L120.108 52.6951Z" fill="black"/>
<path fill-rule="evenodd" clip-rule="evenodd" d="M207.427 52.6951H210.796V39.5736L219.614 48.5168C220.492 49.5238 223.99 53.5204 225.07 53.7903V33.3554H221.706V46.2382C220.694 45.5842 219.08 43.7208 218.073 42.745C217.466 42.1221 216.858 41.5875 216.324 40.9698C214.575 38.9871 208.917 33.0025 207.438 32.0266V52.7003L207.427 52.6951Z" fill="black"/>
<path fill-rule="evenodd" clip-rule="evenodd" d="M130.811 68.687C130.811 64.7163 133.572 61.3736 137.003 61.3736H138.55C142.048 61.3736 145.012 64.3634 145.012 67.7994C145.012 70.2286 144.877 72.0037 142.993 73.7529C140.501 76.125 135.653 76.3897 132.824 73.5453C131.61 72.2996 130.805 70.2597 130.805 68.687H130.811ZM127.644 67.7994C127.644 72.1231 129.191 75.5281 133.167 77.4537C136.063 78.8759 139.967 78.8759 142.93 77.4537C147.441 75.2322 149.662 69.3981 147.576 64.3945C146.097 60.9013 142.593 58.4722 138.825 58.4722C135.523 58.4722 133.1 58.7109 130.478 61.2854C129.134 62.6453 127.65 65.225 127.65 67.7994H127.644Z" fill="black"/>
<path fill-rule="evenodd" clip-rule="evenodd" d="M155.99 50.2349C153.296 50.2349 151.816 50.1155 149.865 48.0704C146.029 44.0426 148.318 35.7794 154.645 35.7794H155.72C161.507 35.7794 164.471 43.3004 160.568 47.951C159.758 48.958 157.671 50.2297 155.99 50.2297V50.2349ZM144.814 42.6827C144.814 48.8127 149.325 53.1363 154.173 53.1363C156.529 53.1363 157.676 53.2246 159.898 52.1865C161.242 51.5377 161.715 51.0601 162.727 50.0843C166.563 46.2641 166.563 39.8954 162.659 35.8105C157.069 30.0335 144.82 32.9661 144.82 42.6827H144.814Z" fill="black"/>
<path fill-rule="evenodd" clip-rule="evenodd" d="M101.593 75.144H100.446V69.367C102.33 69.367 106.036 69.3099 106.036 72.2373C106.036 73.0366 105.294 74.163 104.754 74.5159C104.08 74.9623 102.668 75.1388 101.588 75.1388L101.593 75.144ZM100.446 66.9119V61.5813C103.005 61.5813 104.282 61.5813 104.282 64.4827C104.282 66.289 102.33 66.9119 100.446 66.9119ZM97.1451 78.0455C101.386 78.0455 109.197 79.0524 109.197 72.6837C109.197 70.2857 107.915 68.1213 105.631 67.5918C106.239 66.6731 107.381 65.9049 107.381 64.244C107.381 57.8182 101.391 58.7057 97.1451 58.7057V78.0455Z" fill="black"/>
<path fill-rule="evenodd" clip-rule="evenodd" d="M164.403 78.0455C166.76 78.0455 167.772 78.3413 167.772 77.3655V69.367H175.983V78.0455H179.149V58.7057H175.983V65.8115C175.983 66.315 175.848 66.4655 175.376 66.4655H167.767V58.7057H164.398V78.0455H164.403Z" fill="black"/>
<path fill-rule="evenodd" clip-rule="evenodd" d="M169.116 52.6951H172.417V43.809H180.696V52.6951H183.795V33.3554H180.696V40.2276C180.696 40.7622 180.561 40.9076 180.021 40.9076H172.412V33.3554H169.111V52.6951H169.116Z" fill="black"/>
<path fill-rule="evenodd" clip-rule="evenodd" d="M201.837 67.5918V61.5813C205.273 61.5813 206.55 61.6383 206.55 64.9291C206.55 67.0313 203.856 67.4154 201.837 67.597V67.5918ZM198.536 78.0455C202.777 78.0455 201.837 79.4365 201.837 70.2545C202.782 70.5815 204.261 73.156 204.801 73.9865C205.746 75.4087 206.685 76.6233 207.63 78.0455H211.465C211.061 76.6856 206.01 71.085 205.678 69.8134C207.9 68.7182 210.324 67.3842 209.716 63.564C208.772 57.6988 203.052 58.7057 198.541 58.7057V78.0455H198.536Z" fill="black"/>
<path fill-rule="evenodd" clip-rule="evenodd" d="M116.064 67.5918V61.5812C118.016 61.5812 120.98 61.5501 120.98 64.2492C120.98 66.943 118.556 67.3894 116.064 67.597V67.5918ZM112.763 78.0455C117.004 78.0455 116.064 79.4365 116.064 70.2545C116.874 70.5193 116.942 71.0539 117.611 72.0297L121.852 78.0403H125.62C125.283 76.6492 120.165 71.0227 119.833 69.8082C121.447 69.04 121.919 69.0971 122.999 67.6178C125.153 64.8357 123.944 58.7057 118.083 58.7057H112.763V78.0455Z" fill="black"/>
<path fill-rule="evenodd" clip-rule="evenodd" d="M195.645 39.1324H196.05C196.522 41.2034 198.069 43.1291 198.541 45.143H192.951L195.645 39.1324ZM186.016 52.6951H189.582C189.987 50.9459 191.264 49.4978 191.601 48.0133H199.88L201.832 52.6951H205.398L203.109 47.6292C202.501 46.207 196.579 32.7896 195.837 32.2291L186.006 52.6951H186.016Z" fill="black"/>
<path fill-rule="evenodd" clip-rule="evenodd" d="M183.593 78.0455H194.7V75.144H186.961V69.367H194.498V66.4655H186.961V61.5812H194.7V58.7057H183.593V78.0455Z" fill="black"/>
<path fill-rule="evenodd" clip-rule="evenodd" d="M214.092 62.7024C214.092 65.4845 214.699 67.1766 218.063 68.5053C219.879 69.1853 222.776 70.0158 222.776 72.4761C222.776 76.3274 216.448 77.0385 216.313 72.0297C215.774 72.0868 215.369 72.2062 214.632 72.3255C214.092 72.4449 213.22 72.4138 213.22 72.9173C213.22 75.3775 215.576 78.4866 219.007 78.4866H220.352C223.045 78.4866 225.942 75.8187 225.942 73.1249V71.5833C225.942 66.1956 217.258 66.4914 217.258 63.5848C217.258 61.3061 219.345 61.3632 220.559 61.3632C222.038 61.3632 222.241 62.5467 223.051 63.1384C223.86 62.692 224.597 62.2508 225.475 61.8044C224.4 57.8389 217.128 57.1278 214.772 60.9169C214.569 61.3321 214.097 62.0432 214.097 62.692L214.092 62.7024Z" fill="black"/>
<path fill-rule="evenodd" clip-rule="evenodd" d="M149.932 61.5812H154.375V78.0454C156.732 78.0454 157.744 78.3413 157.744 77.3655V61.5812H162.187V58.7109H149.932V61.5812Z" fill="black"/>
</svg>
